<svg width="375" height="886" viewBox="0 0 375 886" fill="none" xmlns="http://www.w3.org/2000/svg">
<path fill-rule="evenodd" clip-rule="evenodd" d="M-176.747 -89.6353L0.286948 3.2383C5.12467 65.3795 9.80833 116.782 55.0731 223.955C100.338 331.127 181.192 421.19 267.13 508.808C353.068 596.426 444.091 681.6 499.524 783.884C554.957 886.168 574.801 1005.56 584.723 1065.26L586.504 1099.73L440.415 1023.09L330.308 965.325C305.134 912.961 341.421 988.827 291.072 884.099C240.723 779.371 190.374 674.643 140.025 569.915C89.6766 465.186 39.3276 360.458 -11.0213 255.73C-61.3703 151.002 -111.719 46.2736 -136.894 -6.09053L-162.068 -58.4546L-176.747 -89.6353Z" fill="#FEEF6A"/>
</svg>
